<svg width="13" height="14" viewBox="0 0 13 14" fill="none" xmlns="http://www.w3.org/2000/svg">
<g clip-path="url(#clip0_4512_47)">
<path d="M6.5 1.75484C6.17677 1.75484 5.86677 1.88324 5.63821 2.1118C5.40965 2.34036 5.28125 2.65035 5.28125 2.97359C5.28125 3.29682 5.40965 3.60681 5.63821 3.83537C5.86677 4.06393 6.17677 4.19234 6.5 4.19234C6.82323 4.19234 7.13323 4.06393 7.36179 3.83537C7.59035 3.60681 7.71875 3.29682 7.71875 2.97359C7.71875 2.65035 7.59035 2.34036 7.36179 2.1118C7.13323 1.88324 6.82323 1.75484 6.5 1.75484ZM4.46875 2.97359C4.46875 2.43487 4.68276 1.91821 5.06369 1.53728C5.44462 1.15634 5.96128 0.942337 6.5 0.942337C7.03872 0.942337 7.55538 1.15634 7.93631 1.53728C8.31724 1.91821 8.53125 2.43487 8.53125 2.97359C8.53125 3.51231 8.31724 4.02896 7.93631 4.4099C7.55538 4.79083 7.03872 5.00484 6.5 5.00484C5.96128 5.00484 5.44462 4.79083 5.06369 4.4099C4.68276 4.02896 4.46875 3.51231 4.46875 2.97359ZM10.9688 2.56734C10.7533 2.56734 10.5466 2.65294 10.3942 2.80531C10.2419 2.95769 10.1562 3.16435 10.1562 3.37984C10.1562 3.59533 10.2419 3.80199 10.3942 3.95436C10.5466 4.10673 10.7533 4.19234 10.9688 4.19234C11.1842 4.19234 11.3909 4.10673 11.5433 3.95436C11.6956 3.80199 11.7812 3.59533 11.7812 3.37984C11.7812 3.16435 11.6956 2.95769 11.5433 2.80531C11.3909 2.65294 11.1842 2.56734 10.9688 2.56734ZM9.34375 3.37984C9.34375 2.94886 9.51496 2.53554 9.8197 2.23079C10.1244 1.92604 10.5378 1.75484 10.9688 1.75484C11.3997 1.75484 11.8131 1.92604 12.1178 2.23079C12.4225 2.53554 12.5938 2.94886 12.5938 3.37984C12.5938 3.81081 12.4225 4.22414 12.1178 4.52889C11.8131 4.83363 11.3997 5.00484 10.9688 5.00484C10.5378 5.00484 10.1244 4.83363 9.8197 4.52889C9.51496 4.22414 9.34375 3.81081 9.34375 3.37984ZM1.21875 3.37984C1.21875 3.16435 1.30435 2.95769 1.45673 2.80531C1.6091 2.65294 1.81576 2.56734 2.03125 2.56734C2.24674 2.56734 2.4534 2.65294 2.60577 2.80531C2.75815 2.95769 2.84375 3.16435 2.84375 3.37984C2.84375 3.59533 2.75815 3.80199 2.60577 3.95436C2.4534 4.10673 2.24674 4.19234 2.03125 4.19234C1.81576 4.19234 1.6091 4.10673 1.45673 3.95436C1.30435 3.80199 1.21875 3.59533 1.21875 3.37984ZM2.03125 1.75484C1.60027 1.75484 1.18695 1.92604 0.882201 2.23079C0.577455 2.53554 0.40625 2.94886 0.40625 3.37984C0.40625 3.81081 0.577455 4.22414 0.882201 4.52889C1.18695 4.83363 1.60027 5.00484 2.03125 5.00484C2.46223 5.00484 2.87555 4.83363 3.1803 4.52889C3.48505 4.22414 3.65625 3.81081 3.65625 3.37984C3.65625 2.94886 3.48505 2.53554 3.1803 2.23079C2.87555 1.92604 2.46223 1.75484 2.03125 1.75484ZM2.51875 11.5032C2.29875 11.5142 2.07881 11.4804 1.87229 11.4038C1.66577 11.3272 1.47698 11.2094 1.3174 11.0575C1.15781 10.9057 1.03076 10.723 0.943969 10.5205C0.857174 10.3181 0.812445 10.1001 0.8125 9.87984V6.83296C0.8125 6.77909 0.833901 6.72742 0.871994 6.68933C0.910087 6.65124 0.961753 6.62984 1.01562 6.62984H2.44887C2.48137 6.33165 2.587 6.05459 2.74544 5.81734H1.01562C0.455 5.81734 1.44934e-08 6.27234 1.44934e-08 6.83296V9.87984C-3.7916e-05 10.2277 0.0743751 10.5715 0.218239 10.8882C0.362103 11.2049 0.572085 11.4872 0.834076 11.716C1.09607 11.9448 1.404 12.1149 1.73718 12.2148C2.07036 12.3148 2.42107 12.3422 2.76575 12.2954C2.65639 12.0405 2.57362 11.7751 2.51875 11.5032ZM10.2343 12.2954C10.5789 12.3422 10.9296 12.3148 11.2628 12.2148C11.596 12.1149 11.9039 11.9448 12.1659 11.716C12.4279 11.4872 12.6379 11.2049 12.7818 10.8882C12.9256 10.5715 13 10.2277 13 9.87984V6.83296C13 6.27234 12.545 5.81734 11.9844 5.81734H10.2546C10.4138 6.05459 10.5186 6.33165 10.5511 6.62984H11.9844C12.0382 6.62984 12.0899 6.65124 12.128 6.68933C12.1661 6.72742 12.1875 6.77909 12.1875 6.83296V9.87984C12.1876 10.1001 12.1428 10.3181 12.056 10.5205C11.9692 10.723 11.8422 10.9057 11.6826 11.0575C11.523 11.2094 11.3342 11.3272 11.1277 11.4038C10.9212 11.4804 10.7012 11.5142 10.4812 11.5032C10.4264 11.7751 10.3436 12.0405 10.2343 12.2954ZM4.26562 5.81734C3.705 5.81734 3.25 6.27234 3.25 6.83296V10.6923C3.25 11.5543 3.59241 12.3809 4.2019 12.9904C4.8114 13.5999 5.63805 13.9423 6.5 13.9423C7.36195 13.9423 8.1886 13.5999 8.7981 12.9904C9.40759 12.3809 9.75 11.5543 9.75 10.6923V6.83296C9.75 6.27234 9.295 5.81734 8.73438 5.81734H4.26562ZM4.0625 6.83296C4.0625 6.77909 4.0839 6.72742 4.12199 6.68933C4.16009 6.65124 4.21175 6.62984 4.26562 6.62984H8.73438C8.78825 6.62984 8.83991 6.65124 8.87801 6.68933C8.9161 6.72742 8.9375 6.77909 8.9375 6.83296V10.6923C8.9375 11.3388 8.68069 11.9588 8.22357 12.4159C7.76645 12.873 7.14647 13.1298 6.5 13.1298C5.85353 13.1298 5.23355 12.873 4.77643 12.4159C4.31931 11.9588 4.0625 11.3388 4.0625 10.6923V6.83296Z" fill="#252525"/>
</g>
<defs>
<clipPath id="clip0_4512_47">
<rect width="13" height="13" fill="white" transform="translate(0 0.942337)"/>
</clipPath>
</defs>
</svg>
