<svg width="25" height="17" viewBox="0 0 25 17" fill="none" xmlns="http://www.w3.org/2000/svg">
<path d="M24.8674 8.17094C24.8319 8.0907 23.9716 6.18234 22.0592 4.26992C19.511 1.72172 16.2925 0.375 12.75 0.375C9.20749 0.375 5.98897 1.72172 3.44077 4.26992C1.52835 6.18234 0.664053 8.09375 0.632568 8.17094C0.586371 8.27485 0.5625 8.3873 0.5625 8.50101C0.5625 8.61473 0.586371 8.72718 0.632568 8.83109C0.668115 8.91133 1.52835 10.8187 3.44077 12.7311C5.98897 15.2783 9.20749 16.625 12.75 16.625C16.2925 16.625 19.511 15.2783 22.0592 12.7311C23.9716 10.8187 24.8319 8.91133 24.8674 8.83109C24.9136 8.72718 24.9375 8.61473 24.9375 8.50101C24.9375 8.3873 24.9136 8.27485 24.8674 8.17094ZM12.75 15C9.6239 15 6.89288 13.8635 4.6321 11.623C3.70447 10.7005 2.91527 9.64862 2.28905 8.5C2.91511 7.35127 3.70432 6.29932 4.6321 5.37695C6.89288 3.13648 9.6239 2 12.75 2C15.8761 2 18.6071 3.13648 20.8679 5.37695C21.7973 6.2991 22.5882 7.35104 23.216 8.5C22.4837 9.86703 19.2937 15 12.75 15ZM12.75 3.625C11.7858 3.625 10.8433 3.91091 10.0416 4.44659C9.2399 4.98226 8.61506 5.74363 8.24608 6.63442C7.8771 7.52521 7.78056 8.50541 7.96866 9.45107C8.15676 10.3967 8.62106 11.2654 9.30285 11.9471C9.98463 12.6289 10.8533 13.0932 11.7989 13.2813C12.7446 13.4694 13.7248 13.3729 14.6156 13.0039C15.5064 12.6349 16.2677 12.0101 16.8034 11.2084C17.3391 10.4067 17.625 9.46418 17.625 8.5C17.6236 7.20748 17.1096 5.96829 16.1957 5.05434C15.2817 4.14039 14.0425 3.62634 12.75 3.625ZM12.75 11.75C12.1072 11.75 11.4788 11.5594 10.9444 11.2023C10.4099 10.8452 9.99337 10.3376 9.74738 9.74372C9.5014 9.14986 9.43704 8.4964 9.56244 7.86596C9.68784 7.23552 9.99737 6.65642 10.4519 6.2019C10.9064 5.74738 11.4855 5.43785 12.1159 5.31245C12.7464 5.18705 13.3999 5.25141 13.9937 5.49739C14.5876 5.74338 15.0952 6.15994 15.4523 6.6944C15.8094 7.22886 16 7.85721 16 8.5C16 9.36195 15.6576 10.1886 15.0481 10.7981C14.4386 11.4076 13.6119 11.75 12.75 11.75Z" fill="#CC6237"/>
</svg>
