<svg width="15" height="14" viewBox="0 0 15 14" fill="none" xmlns="http://www.w3.org/2000/svg">
<g clip-path="url(#clip0_4512_53)">
<path d="M2.62503 4.39099C2.62503 3.83072 2.83515 3.2934 3.20916 2.89723C3.58316 2.50106 4.09043 2.27849 4.61935 2.27849C5.14828 2.27849 5.65554 2.50106 6.02955 2.89723C6.40355 3.2934 6.61367 3.83072 6.61367 4.39099C6.61367 4.95126 6.40355 5.48858 6.02955 5.88475C5.65554 6.28092 5.14828 6.50349 4.61935 6.50349C4.09043 6.50349 3.58316 6.28092 3.20916 5.88475C2.83515 5.48858 2.62503 4.95126 2.62503 4.39099ZM4.61935 1.3396C3.85535 1.3396 3.12263 1.66108 2.5824 2.23333C2.04217 2.80558 1.73867 3.58171 1.73867 4.39099C1.73867 5.20027 2.04217 5.9764 2.5824 6.54865C3.12263 7.12089 3.85535 7.44238 4.61935 7.44238C5.38336 7.44238 6.11607 7.12089 6.6563 6.54865C7.19653 5.9764 7.50003 5.20027 7.50003 4.39099C7.50003 3.58171 7.19653 2.80558 6.6563 2.23333C6.11607 1.66108 5.38336 1.3396 4.61935 1.3396ZM9.6601 12.273C10.137 12.4795 10.737 12.6063 11.4887 12.6063C13.1559 12.6063 14.0777 11.9791 14.5635 11.2599C14.8169 10.8825 14.9758 10.4432 15.0253 9.98301C15.0297 9.94026 15.0326 9.89736 15.0341 9.85438V9.7896C15.0341 9.60465 14.9997 9.42152 14.9329 9.25065C14.8661 9.07979 14.7682 8.92453 14.6447 8.79376C14.5212 8.66298 14.3747 8.55924 14.2134 8.48847C14.0521 8.41769 13.8792 8.38127 13.7046 8.38127H9.60072C9.81344 8.65354 9.97299 8.97183 10.0661 9.32015H13.7046C13.8221 9.32015 13.9348 9.36961 14.018 9.45765C14.1011 9.54569 14.1478 9.66509 14.1478 9.7896V9.8403L14.1433 9.88724C14.1094 10.1849 14.0058 10.4689 13.842 10.7135C13.5521 11.1444 12.9228 11.6674 11.4887 11.6674C10.8399 11.6674 10.3559 11.5603 9.99337 11.4035C9.92069 11.6664 9.81522 11.9631 9.6601 12.273ZM-0.0340576 10.259C-0.0340576 9.76103 0.152711 9.28341 0.485162 8.93125C0.817613 8.5791 1.26851 8.38127 1.73867 8.38127H7.50003C7.97019 8.38127 8.42109 8.5791 8.75354 8.93125C9.08599 9.28341 9.27276 9.76103 9.27276 10.259V10.3379C9.27276 10.3473 9.27276 10.3595 9.27099 10.3755C9.26021 10.5614 9.23501 10.746 9.19565 10.9275C9.12031 11.273 8.97051 11.735 8.66826 12.1988C8.04692 13.1508 6.84678 14.0146 4.61935 14.0146C2.39192 14.0146 1.19178 13.1508 0.570442 12.1988C0.243218 11.6939 0.0391851 11.111 -0.0234213 10.5022C-0.0287178 10.4476 -0.0322652 10.3928 -0.0340576 10.3379V10.259ZM0.852306 10.3154V10.3323L0.858511 10.4102C0.906538 10.8603 1.05811 11.291 1.29992 11.6646C1.73158 12.3255 2.63656 13.0757 4.61935 13.0757C6.60215 13.0757 7.50712 12.3255 7.93878 11.6646C8.18066 11.291 8.33224 10.8603 8.38019 10.4102C8.3831 10.3843 8.38487 10.3583 8.38551 10.3323L8.3864 10.3163V10.259C8.3864 10.01 8.29301 9.77122 8.12679 9.59515C7.96056 9.41907 7.73511 9.32015 7.50003 9.32015H1.73867C1.50359 9.32015 1.27814 9.41907 1.11192 9.59515C0.945691 9.77122 0.852306 10.01 0.852306 10.259V10.3154ZM10.1591 5.09516C10.1591 4.72164 10.2992 4.36343 10.5485 4.09931C10.7979 3.8352 11.1361 3.68682 11.4887 3.68682C11.8413 3.68682 12.1795 3.8352 12.4288 4.09931C12.6781 4.36343 12.8182 4.72164 12.8182 5.09516C12.8182 5.46867 12.6781 5.82688 12.4288 6.091C12.1795 6.35511 11.8413 6.50349 11.4887 6.50349C11.1361 6.50349 10.7979 6.35511 10.5485 6.091C10.2992 5.82688 10.1591 5.46867 10.1591 5.09516ZM11.4887 2.74793C10.901 2.74793 10.3373 2.99523 9.92179 3.43542C9.50622 3.87561 9.27276 4.47263 9.27276 5.09516C9.27276 5.71768 9.50622 6.3147 9.92179 6.75489C10.3373 7.19508 10.901 7.44238 11.4887 7.44238C12.0764 7.44238 12.64 7.19508 13.0556 6.75489C13.4711 6.3147 13.7046 5.71768 13.7046 5.09516C13.7046 4.47263 13.4711 3.87561 13.0556 3.43542C12.64 2.99523 12.0764 2.74793 11.4887 2.74793Z" fill="#252525"/>
</g>
<defs>
<clipPath id="clip0_4512_53">
<rect width="15" height="13" fill="white" transform="translate(0 0.942337)"/>
</clipPath>
</defs>
</svg>
