<svg width="15" height="13" viewBox="0 0 15 13" fill="none" xmlns="http://www.w3.org/2000/svg">
<g clip-path="url(#clip0_4653_62)">
<path d="M1.59094 10.9318C1.59094 10.1482 1.90222 9.39668 2.45631 8.8426C3.01039 8.28852 3.76189 7.97723 4.54549 7.97723H10.4546C11.2382 7.97723 11.9897 8.28852 12.5438 8.8426C13.0978 9.39668 13.4091 10.1482 13.4091 10.9318C13.4091 11.3236 13.2535 11.6993 12.9764 11.9764C12.6994 12.2534 12.3236 12.4091 11.9319 12.4091H3.06822C2.67642 12.4091 2.30067 12.2534 2.02363 11.9764C1.74658 11.6993 1.59094 11.3236 1.59094 10.9318Z" stroke="#252525" stroke-linejoin="round"/>
<path d="M7.50009 5.0227C8.7239 5.0227 9.716 4.0306 9.716 2.80679C9.716 1.58298 8.7239 0.590881 7.50009 0.590881C6.27628 0.590881 5.28418 1.58298 5.28418 2.80679C5.28418 4.0306 6.27628 5.0227 7.50009 5.0227Z" stroke="#252525"/>
</g>
<defs>
<clipPath id="clip0_4653_62">
<rect width="15" height="13" fill="white"/>
</clipPath>
</defs>
</svg>
